<svg width="186" height="41" viewBox="0 0 186 41" fill="none" xmlns="http://www.w3.org/2000/svg">
<path d="M65.432 30V13.2H67.832V30H65.432ZM54.752 30V13.2H57.152V30H54.752ZM56.744 22.416V20.448H65.96V22.416H56.744ZM76.6978 30.288C75.5458 30.288 74.5218 30.024 73.6258 29.496C72.7298 28.968 72.0258 28.232 71.5138 27.288C71.0178 26.344 70.7698 25.248 70.7698 24C70.7698 22.72 71.0178 21.608 71.5138 20.664C72.0258 19.704 72.7298 18.96 73.6258 18.432C74.5218 17.888 75.5618 17.616 76.7458 17.616C77.9298 17.616 78.9458 17.88 79.7938 18.408C80.6418 18.936 81.2978 19.64 81.7618 20.52C82.2258 21.384 82.4578 22.344 82.4578 23.4C82.4578 23.56 82.4498 23.736 82.4338 23.928C82.4338 24.104 82.4258 24.304 82.4098 24.528H72.5218V22.824H80.0578C80.0098 21.816 79.6738 21.032 79.0498 20.472C78.4258 19.896 77.6498 19.608 76.7218 19.608C76.0658 19.608 75.4658 19.76 74.9218 20.064C74.3778 20.352 73.9378 20.784 73.6018 21.36C73.2818 21.92 73.1217 22.632 73.1217 23.496V24.168C73.1217 25.064 73.2818 25.824 73.6018 26.448C73.9378 27.056 74.3778 27.52 74.9218 27.84C75.4658 28.144 76.0578 28.296 76.6978 28.296C77.4658 28.296 78.0978 28.128 78.5938 27.792C79.0898 27.456 79.4578 27 79.6978 26.424H82.0978C81.8898 27.16 81.5378 27.824 81.0418 28.416C80.5458 28.992 79.9298 29.448 79.1938 29.784C78.4738 30.12 77.6418 30.288 76.6978 30.288ZM89.1322 30.288C88.1402 30.288 87.3162 30.12 86.6602 29.784C86.0042 29.448 85.5162 29 85.1962 28.44C84.8762 27.864 84.7162 27.248 84.7162 26.592C84.7162 25.792 84.9242 25.112 85.3402 24.552C85.7562 23.976 86.3482 23.536 87.1162 23.232C87.8842 22.928 88.8042 22.776 89.8762 22.776H93.0202C93.0202 22.072 92.9162 21.488 92.7082 21.024C92.5002 20.56 92.1882 20.216 91.7722 19.992C91.3722 19.752 90.8602 19.632 90.2362 19.632C89.5162 19.632 88.9002 19.808 88.3882 20.16C87.8762 20.496 87.5562 21 87.4282 21.672H85.0282C85.1242 20.824 85.4122 20.104 85.8922 19.512C86.3882 18.904 87.0202 18.44 87.7882 18.12C88.5562 17.784 89.3722 17.616 90.2362 17.616C91.3722 17.616 92.3242 17.816 93.0922 18.216C93.8602 18.616 94.4362 19.184 94.8202 19.92C95.2202 20.64 95.4202 21.504 95.4202 22.512V30H93.3322L93.1402 27.96C92.9642 28.28 92.7562 28.584 92.5162 28.872C92.2762 29.16 91.9882 29.408 91.6522 29.616C91.3322 29.824 90.9562 29.984 90.5242 30.096C90.1082 30.224 89.6442 30.288 89.1322 30.288ZM89.5882 28.344C90.1002 28.344 90.5642 28.24 90.9802 28.032C91.3962 27.824 91.7482 27.544 92.0362 27.192C92.3402 26.824 92.5642 26.416 92.7082 25.968C92.8682 25.504 92.9562 25.032 92.9722 24.552V24.48H90.1162C89.4282 24.48 88.8682 24.568 88.4362 24.744C88.0202 24.904 87.7162 25.128 87.5242 25.416C87.3322 25.704 87.2362 26.04 87.2362 26.424C87.2362 26.824 87.3242 27.168 87.5002 27.456C87.6922 27.728 87.9642 27.944 88.3162 28.104C88.6682 28.264 89.0922 28.344 89.5882 28.344ZM98.4836 30V12.72H100.884V30H98.4836ZM109.147 30C108.395 30 107.739 29.88 107.179 29.64C106.619 29.4 106.187 29 105.883 28.44C105.579 27.88 105.427 27.12 105.427 26.16V19.944H103.339V17.904H105.427L105.715 14.88H107.827V17.904H111.259V19.944H107.827V26.184C107.827 26.872 107.971 27.344 108.259 27.6C108.547 27.84 109.043 27.96 109.747 27.96H111.139V30H109.147ZM113.905 30V12.72H116.305V19.872C116.705 19.168 117.257 18.616 117.961 18.216C118.681 17.816 119.473 17.616 120.337 17.616C121.297 17.616 122.121 17.816 122.809 18.216C123.497 18.6 124.025 19.184 124.393 19.968C124.761 20.736 124.945 21.704 124.945 22.872V30H122.569V23.136C122.569 22 122.329 21.144 121.849 20.568C121.369 19.976 120.657 19.68 119.713 19.68C119.073 19.68 118.497 19.832 117.985 20.136C117.473 20.44 117.065 20.888 116.761 21.48C116.457 22.056 116.305 22.76 116.305 23.592V30H113.905ZM141.643 30.288C139.995 30.288 138.571 29.928 137.371 29.208C136.187 28.472 135.267 27.456 134.611 26.16C133.971 24.848 133.651 23.328 133.651 21.6C133.651 19.888 133.971 18.376 134.611 17.064C135.267 15.752 136.187 14.736 137.371 14.016C138.571 13.28 139.995 12.912 141.643 12.912C143.611 12.912 145.203 13.384 146.419 14.328C147.651 15.272 148.435 16.6 148.771 18.312H146.131C145.891 17.32 145.395 16.528 144.643 15.936C143.907 15.344 142.907 15.048 141.643 15.048C140.507 15.048 139.523 15.312 138.691 15.84C137.859 16.368 137.219 17.12 136.771 18.096C136.323 19.072 136.099 20.24 136.099 21.6C136.099 22.96 136.323 24.136 136.771 25.128C137.219 26.104 137.859 26.856 138.691 27.384C139.523 27.896 140.507 28.152 141.643 28.152C142.907 28.152 143.907 27.872 144.643 27.312C145.395 26.736 145.891 25.96 146.131 24.984H148.771C148.435 26.648 147.651 27.952 146.419 28.896C145.203 29.824 143.611 30.288 141.643 30.288ZM155.531 30.288C154.539 30.288 153.715 30.12 153.059 29.784C152.403 29.448 151.915 29 151.595 28.44C151.275 27.864 151.115 27.248 151.115 26.592C151.115 25.792 151.323 25.112 151.739 24.552C152.155 23.976 152.747 23.536 153.515 23.232C154.283 22.928 155.203 22.776 156.275 22.776H159.419C159.419 22.072 159.315 21.488 159.107 21.024C158.899 20.56 158.587 20.216 158.171 19.992C157.771 19.752 157.259 19.632 156.635 19.632C155.915 19.632 155.299 19.808 154.787 20.16C154.275 20.496 153.955 21 153.827 21.672H151.427C151.523 20.824 151.811 20.104 152.291 19.512C152.787 18.904 153.419 18.44 154.187 18.12C154.955 17.784 155.771 17.616 156.635 17.616C157.771 17.616 158.723 17.816 159.491 18.216C160.259 18.616 160.835 19.184 161.219 19.92C161.619 20.64 161.819 21.504 161.819 22.512V30H159.731L159.539 27.96C159.363 28.28 159.155 28.584 158.915 28.872C158.675 29.16 158.387 29.408 158.051 29.616C157.731 29.824 157.355 29.984 156.923 30.096C156.507 30.224 156.043 30.288 155.531 30.288ZM155.987 28.344C156.499 28.344 156.963 28.24 157.379 28.032C157.795 27.824 158.147 27.544 158.435 27.192C158.739 26.824 158.963 26.416 159.107 25.968C159.267 25.504 159.355 25.032 159.371 24.552V24.48H156.515C155.827 24.48 155.267 24.568 154.835 24.744C154.419 24.904 154.115 25.128 153.923 25.416C153.731 25.704 153.635 26.04 153.635 26.424C153.635 26.824 153.723 27.168 153.899 27.456C154.091 27.728 154.363 27.944 154.715 28.104C155.067 28.264 155.491 28.344 155.987 28.344ZM164.882 30V17.904H167.042L167.258 20.184C167.53 19.64 167.882 19.184 168.314 18.816C168.746 18.432 169.25 18.136 169.826 17.928C170.418 17.72 171.09 17.616 171.842 17.616V20.16H170.978C170.482 20.16 170.01 20.224 169.562 20.352C169.114 20.464 168.714 20.664 168.362 20.952C168.026 21.24 167.762 21.632 167.57 22.128C167.378 22.624 167.282 23.24 167.282 23.976V30H164.882ZM179.143 30.288C177.991 30.288 176.967 30.024 176.071 29.496C175.175 28.968 174.471 28.232 173.959 27.288C173.463 26.344 173.215 25.248 173.215 24C173.215 22.72 173.463 21.608 173.959 20.664C174.471 19.704 175.175 18.96 176.071 18.432C176.967 17.888 178.007 17.616 179.191 17.616C180.375 17.616 181.391 17.88 182.239 18.408C183.087 18.936 183.743 19.64 184.207 20.52C184.671 21.384 184.903 22.344 184.903 23.4C184.903 23.56 184.895 23.736 184.879 23.928C184.879 24.104 184.871 24.304 184.855 24.528H174.967V22.824H182.503C182.455 21.816 182.119 21.032 181.495 20.472C180.871 19.896 180.095 19.608 179.167 19.608C178.511 19.608 177.911 19.76 177.367 20.064C176.823 20.352 176.383 20.784 176.047 21.36C175.727 21.92 175.567 22.632 175.567 23.496V24.168C175.567 25.064 175.727 25.824 176.047 26.448C176.383 27.056 176.823 27.52 177.367 27.84C177.911 28.144 178.503 28.296 179.143 28.296C179.911 28.296 180.543 28.128 181.039 27.792C181.535 27.456 181.903 27 182.143 26.424H184.543C184.335 27.16 183.983 27.824 183.487 28.416C182.991 28.992 182.375 29.448 181.639 29.784C180.919 30.12 180.087 30.288 179.143 30.288Z" fill="#233348"/>
<circle cx="20.5" cy="20.5" r="20.5" fill="#458FF6"/>
<path d="M15.028 31V12.67H18.382V20.314H27.768V12.67H31.122V31H27.768V23.096H18.382V31H15.028Z" fill="white"/>
</svg>
